<svg xmlns="http://www.w3.org/2000/svg" id="Group_1705" width="24" height="24" data-name="Group 1705" viewBox="0 0 24 24">
    <defs>
        <style>
            .cls-1{fill:none}.cls-2{fill:#999}
        </style>
    </defs>
    <path id="Rectangle_910" d="M0 0h24v24H0z" class="cls-1" data-name="Rectangle 910"/>
    <path id="Path_643" d="M0-8.312a3.639 3.639 0 0 0-.854.137 1.791 1.791 0 0 1 .2.738 1.532 1.532 0 0 1-1.534 1.531 1.791 1.791 0 0 1-.738-.2 3.665 3.665 0 0 0-.12.846A3.056 3.056 0 0 0 .009-2.2a3.056 3.056 0 0 0 3.055-3.058A3.056 3.056 0 0 0 .009-8.313zm7.78 2.663A8.77 8.77 0 0 0 0-10.5a8.771 8.771 0 0 0-7.78 4.851 1.049 1.049 0 0 0-.1.4 1.049 1.049 0 0 0 .1.4A8.77 8.77 0 0 0 0 0a8.771 8.771 0 0 0 7.78-4.851 1.049 1.049 0 0 0 .1-.4 1.049 1.049 0 0 0-.1-.398zM0-1.312A7.438 7.438 0 0 1-6.506-5.25 7.438 7.438 0 0 1 0-9.187 7.438 7.438 0 0 1 6.506-5.25 7.438 7.438 0 0 1 0-1.312z" class="cls-2" data-name="Path 643" transform="translate(12.875 17.5)"/>
</svg>
